<svg width="33" height="33" viewBox="0 0 33 33" fill="none" xmlns="http://www.w3.org/2000/svg">
<path d="M22.6259 18.2957C22.964 18.2957 23.2552 18.0533 23.2927 17.7302L23.7154 14.3464C23.7624 13.9604 23.4524 13.6283 23.0485 13.6283H18.8218V10.8009C18.8218 9.51742 19.1976 8.64678 21.123 8.64678H22.9076C23.2833 8.64678 23.5839 8.35956 23.5839 8.00053V5.14625C23.5839 4.78722 23.2833 4.5 22.9076 4.5H20.0053C16.4643 4.5 14.041 6.56442 14.041 10.3522V13.6193H11.1763C10.8006 13.6193 10.5 13.9065 10.5 14.2656L10.5094 17.6494C10.5094 17.9995 10.81 18.2867 11.1857 18.2867H14.041L14.0222 28.7434H18.8125L18.8313 18.2867H22.6259V18.2957Z" fill="#8D8E8E"/>
</svg>
