<svg width="33" height="33" viewBox="0 0 33 33" fill="none" xmlns="http://www.w3.org/2000/svg">
<path d="M16.4976 6.66234C19.703 6.66234 20.0793 6.67662 21.3462 6.73378C22.5179 6.78616 23.1514 6.98144 23.5752 7.14814C24.1373 7.36723 24.5373 7.62443 24.9565 8.04357C25.3755 8.46269 25.6376 8.86277 25.8518 9.42478C26.0138 9.84869 26.2138 10.4821 26.2662 11.6538C26.3234 12.9207 26.3376 13.297 26.3376 16.5024C26.3376 19.7078 26.3234 20.084 26.2662 21.351C26.2138 22.5226 26.0186 23.1562 25.8518 23.58C25.6328 24.1419 25.3755 24.5421 24.9565 24.9613C24.5373 25.3803 24.1373 25.6422 23.5752 25.8566C23.1514 26.0186 22.5179 26.2186 21.3462 26.271C20.0793 26.3282 19.703 26.3424 16.4976 26.3424C13.2922 26.3424 12.916 26.3282 11.649 26.271C10.4774 26.2186 9.84392 26.0234 9.42003 25.8566C8.858 25.6376 8.45794 25.3803 8.0388 24.9613C7.61966 24.5421 7.35771 24.1419 7.14338 23.58C6.98144 23.1562 6.78141 22.5226 6.72901 21.351C6.67186 20.084 6.65757 19.7078 6.65757 16.5024C6.65757 13.297 6.67186 12.9207 6.72901 11.6538C6.78141 10.4821 6.97669 9.84869 7.14338 9.42478C7.36248 8.86277 7.61966 8.46269 8.0388 8.04357C8.45794 7.62443 8.858 7.36248 9.42003 7.14814C9.84392 6.98621 10.4774 6.78616 11.649 6.73378C12.916 6.67186 13.2922 6.66234 16.4976 6.66234ZM16.4976 4.5C13.2398 4.5 12.8302 4.51429 11.549 4.57144C10.2726 4.6286 9.40098 4.8334 8.63891 5.1287C7.84829 5.43352 7.18149 5.84789 6.51469 6.51469C5.84789 7.18149 5.43828 7.85304 5.1287 8.63891C4.8334 9.40098 4.6286 10.2726 4.57144 11.5538C4.51429 12.8302 4.5 13.2398 4.5 16.4976C4.5 19.7554 4.51429 20.165 4.57144 21.4462C4.6286 22.7227 4.8334 23.5942 5.1287 24.3611C5.43352 25.1517 5.84789 25.8186 6.51469 26.4853C7.18149 27.1522 7.85304 27.5618 8.63891 27.8714C9.40098 28.1666 10.2726 28.3714 11.5538 28.4285C12.835 28.4858 13.2398 28.5 16.5024 28.5C19.7649 28.5 20.1698 28.4858 21.451 28.4285C22.7274 28.3714 23.599 28.1666 24.3659 27.8714C25.1565 27.5666 25.8232 27.1522 26.4901 26.4853C27.1568 25.8186 27.5666 25.1469 27.876 24.3611C28.1714 23.599 28.3762 22.7274 28.4333 21.4462C28.4904 20.165 28.5048 19.7602 28.5048 16.4976C28.5048 13.2351 28.4904 12.8302 28.4333 11.549C28.3762 10.2726 28.1714 9.40098 27.876 8.63416C27.5712 7.84352 27.1568 7.17672 26.4901 6.50992C25.8232 5.84312 25.1517 5.43352 24.3659 5.12393C23.6038 4.82864 22.7322 4.62383 21.451 4.56668C20.165 4.51429 19.7554 4.5 16.4976 4.5Z" fill="#8D8E8E"/>
<path d="M16.4975 10.3345C13.0968 10.3345 10.3344 13.0922 10.3344 16.4976C10.3344 19.903 13.0968 22.6607 16.4975 22.6607C19.8982 22.6607 22.6606 19.8983 22.6606 16.4976C22.6606 13.0969 19.8982 10.3345 16.4975 10.3345ZM16.4975 20.4984C14.2875 20.4984 12.4967 18.7076 12.4967 16.4976C12.4967 14.2876 14.2875 12.4968 16.4975 12.4968C18.7075 12.4968 20.4983 14.2876 20.4983 16.4976C20.4983 18.7076 18.7075 20.4984 16.4975 20.4984Z" fill="#8D8E8E"/>
<path d="M22.9037 11.5295C23.6979 11.5295 24.3418 10.8857 24.3418 10.0914C24.3418 9.29718 23.6979 8.65332 22.9037 8.65332C22.1094 8.65332 21.4656 9.29718 21.4656 10.0914C21.4656 10.8857 22.1094 11.5295 22.9037 11.5295Z" fill="#8D8E8E"/>
</svg>
