<svg width="33" height="33" viewBox="0 0 33 33" fill="none" xmlns="http://www.w3.org/2000/svg">
<path d="M16.2067 23.9314H17.8219C17.8219 23.9314 18.3056 23.8755 18.5598 23.6199C18.7893 23.3803 18.7812 22.933 18.7812 22.933C18.7812 22.933 18.7483 20.8244 19.7568 20.5129C20.7489 20.2094 22.0197 22.5496 23.3644 23.4521C24.381 24.1311 25.16 23.9873 25.16 23.9873L28.7675 23.9394C28.7675 23.9394 30.6533 23.8275 29.7596 22.3819C29.6858 22.2621 29.2349 21.3116 27.0786 19.3628C24.8156 17.3181 25.119 17.6536 27.841 14.1153C29.4972 11.9588 30.1614 10.649 29.9563 10.0819C29.7595 9.54676 28.5379 9.69052 28.5379 9.69052L24.4794 9.71448C24.4794 9.71448 24.1761 9.67455 23.9547 9.80234C23.7333 9.93013 23.5939 10.2257 23.5939 10.2257C23.5939 10.2257 22.9545 11.8949 22.0935 13.3086C20.2898 16.2958 19.56 16.4555 19.2649 16.2718C18.5761 15.8405 18.7484 14.5306 18.7484 13.6042C18.7484 10.7049 19.1992 9.49883 17.8711 9.18734C17.4283 9.08351 17.1086 9.01163 15.9771 9.00364C14.5259 8.98767 13.3042 9.01163 12.6073 9.33909C12.1482 9.56273 11.7874 10.0499 12.0088 10.0819C12.2794 10.1138 12.8861 10.2416 13.2058 10.6649C13.624 11.216 13.6076 12.454 13.6076 12.454C13.6076 12.454 13.8454 15.8645 13.0501 16.2878C12.5007 16.5753 11.7546 15.9843 10.1394 13.2767C9.31952 11.879 8.6964 10.3375 8.6964 10.3375C8.6964 10.3375 8.57341 10.0499 8.36023 9.89818C8.09787 9.71448 7.73712 9.65059 7.73712 9.65059L3.88359 9.67455C3.88359 9.67455 3.30146 9.69052 3.08829 9.93812C2.89971 10.1538 3.07189 10.609 3.07189 10.609C3.07189 10.609 6.09732 17.4858 9.5163 20.9602C12.6483 24.1391 16.2067 23.9314 16.2067 23.9314Z" fill="#8D8E8E"/>
</svg>
